<?xml version="1.0" standalone="no"?>
<!DOCTYPE svg PUBLIC "-//W3C//DTD SVG 20010904//EN"
 "http://www.w3.org/TR/2001/REC-SVG-20010904/DTD/svg10.dtd">
<svg version="1.0" xmlns="http://www.w3.org/2000/svg"
 width="800.000000pt" height="600.000000pt" viewBox="0 0 800.000000 600.000000"
 preserveAspectRatio="xMidYMid meet">
<metadata>
Created by potrace 1.15, written by Peter Selinger 2001-2017
</metadata>
<g transform="translate(0.000000,600.000000) scale(0.100000,-0.100000)"
fill="#000000" stroke="none">
<path d="M0 3000 l0 -3000 4000 0 4000 0 0 3000 0 3000 -4000 0 -4000 0 0
-3000z m4460 86 c71 -14 125 -29 135 -37 5 -5 20 -9 35 -10 14 0 19 -3 12 -6
-14 -6 16 -25 55 -35 17 -4 20 -2 16 11 -3 12 -2 12 7 -2 6 -10 9 -25 6 -33
-3 -8 -1 -14 4 -14 6 0 10 5 10 11 0 5 5 7 12 3 7 -5 9 -2 6 7 -4 10 2 15 19
17 14 1 22 -2 18 -8 -4 -6 -11 -7 -17 -4 -7 4 -8 2 -4 -4 3 -6 -3 -16 -14 -22
-11 -6 -18 -15 -15 -21 4 -5 14 -5 26 1 18 10 19 8 14 -17 -5 -27 -5 -27 5 -4
7 16 7 27 0 36 -8 9 -6 14 5 19 8 3 15 2 15 -3 0 -4 11 -6 24 -4 13 3 27 0 30
-6 4 -6 0 -11 -10 -11 -20 0 -13 -10 9 -14 16 -2 67 -58 67 -74 0 -17 30 -35
65 -38 19 -1 35 2 35 7 0 5 -7 9 -15 9 -8 0 -15 5 -15 10 0 6 4 10 9 10 14 0
33 -28 27 -39 -4 -5 -2 -12 4 -16 5 -3 10 -1 10 4 0 6 5 11 12 11 8 0 6 -7 -5
-17 -14 -15 -21 -15 -37 -6 -12 8 -21 9 -25 3 -4 -6 -1 -9 7 -8 7 2 12 -2 11
-9 -2 -8 6 -9 26 -3 27 7 30 5 41 -23 22 -62 35 -80 58 -82 12 -1 22 4 22 12
0 15 -16 17 -25 3 -4 -6 -11 -7 -17 -4 -5 3 1 12 14 18 18 10 25 10 31 -1 4
-7 14 -13 22 -13 8 0 21 -10 29 -22 9 -12 16 -18 16 -12 0 5 -7 20 -16 32 -16
23 -13 26 21 22 32 -3 47 -20 34 -36 -6 -8 -8 -14 -3 -14 5 0 17 14 27 31 16
28 16 31 1 25 -14 -5 -15 -4 -4 8 10 14 14 14 35 0 15 -10 30 -12 46 -6 28 10
62 4 53 -9 -3 -5 -10 -7 -15 -4 -5 4 -8 -5 -7 -18 1 -13 8 -24 15 -24 6 0 10
4 7 8 -2 4 0 10 6 14 5 3 10 0 11 -7 0 -7 4 -4 9 7 5 11 9 14 9 8 1 -7 5 -13
11 -13 5 0 9 3 9 8 -4 25 3 33 29 31 43 -4 94 11 88 26 -3 9 2 11 16 7 20 -5
20 -5 2 -19 -10 -8 -32 -17 -47 -20 -21 -4 -25 -8 -15 -15 15 -10 -35 -3 -52
7 -5 3 -10 -3 -10 -14 0 -12 0 -24 -1 -28 0 -4 5 -9 13 -11 11 -3 11 -2 0 6
-10 7 -10 11 1 21 11 9 17 8 26 -2 17 -22 -30 -62 -57 -48 -33 17 -91 2 -107
-29 -22 -43 -42 -55 -60 -36 -21 21 -27 20 -57 -6 -30 -28 -82 -30 -120 -4
-15 10 -45 20 -66 23 -33 4 -42 1 -63 -23 -29 -35 -82 -57 -98 -41 -7 7 -29 1
-74 -21 -35 -18 -69 -32 -76 -32 -15 0 -97 -56 -108 -74 -4 -7 -28 -20 -53
-29 -25 -8 -60 -21 -77 -28 -30 -12 -36 -11 -77 18 -24 17 -59 33 -78 36 -38
5 -109 35 -120 51 -3 5 -24 10 -46 10 -36 1 -44 7 -88 59 -45 54 -51 58 -81
52 -18 -3 -33 -2 -33 2 -1 4 -10 19 -20 32 -20 23 -21 23 -47 6 -15 -10 -54
-44 -87 -76 -58 -56 -96 -73 -111 -49 -9 15 -51 12 -64 -4 -7 -8 -20 -12 -30
-9 -23 6 -91 -22 -91 -38 0 -9 -24 -10 -97 -4 -54 4 -139 7 -190 6 -89 -2 -94
-1 -156 33 -35 20 -71 36 -79 36 -9 0 -39 -16 -68 -35 -51 -34 -52 -35 -118
-25 -37 5 -119 10 -183 10 -161 0 -210 11 -277 62 -66 49 -174 97 -220 98 -29
0 -91 31 -100 50 -3 7 -114 4 -135 -5 -18 -7 -77 11 -77 25 0 15 14 19 26 9
20 -16 47 -3 41 20 -3 14 1 18 17 16 11 -1 27 -3 34 -4 6 0 12 -6 12 -11 0 -7
-6 -7 -19 0 -27 14 -41 12 -16 -2 19 -11 19 -11 0 -19 -15 -6 -13 -8 12 -6 17
0 29 5 27 9 -3 4 0 8 5 8 6 0 10 5 9 11 -2 6 7 13 19 15 13 2 22 1 22 -4 -3
-19 2 -23 16 -12 20 16 32 5 16 -14 -7 -8 -8 -17 -3 -20 9 -5 26 20 25 34 -1
3 5 11 13 18 12 11 15 10 20 -3 6 -14 8 -14 18 1 11 14 14 13 29 -10 10 -14
13 -26 7 -26 -5 0 -10 -8 -10 -17 0 -10 4 -14 8 -8 4 6 16 15 27 22 11 6 19
16 17 22 -1 6 3 11 9 11 5 0 8 4 5 8 -4 6 31 7 89 3 6 -1 3 -5 -5 -10 -8 -6
-18 -7 -22 -5 -4 3 -5 -2 -2 -10 5 -13 2 -13 -19 -3 -14 6 -23 16 -20 21 4 5
1 6 -5 2 -6 -4 -9 -13 -6 -20 8 -20 52 -26 65 -10 16 19 27 17 33 -4 4 -10 13
-19 21 -19 8 0 12 4 9 8 -2 4 0 10 6 14 5 3 10 2 10 -2 0 -5 20 -9 45 -9 29
-1 42 3 38 10 -4 6 1 5 10 -3 9 -7 14 -18 10 -24 -3 -6 -1 -7 6 -3 6 4 9 12 6
17 -3 5 1 6 9 3 9 -3 13 -11 10 -18 -3 -6 3 -1 15 12 19 22 39 14 25 -10 -5
-10 -4 -10 6 -1 7 6 13 23 13 38 0 19 3 23 10 16 14 -14 30 -14 22 -1 -3 6 0
10 9 10 8 0 21 3 30 6 9 3 16 1 16 -5 0 -6 -7 -11 -15 -11 -8 0 -15 -4 -15
-10 0 -5 -9 -10 -20 -10 -11 0 -20 -4 -20 -10 0 -15 47 -12 53 4 3 7 15 16 26
19 12 3 19 1 15 -4 -3 -5 0 -9 6 -9 6 0 8 -4 5 -10 -3 -5 1 -10 9 -10 19 0 20
5 6 30 -8 15 -6 18 14 16 24 -1 30 -15 12 -28 -13 -9 12 -38 33 -37 14 0 14 1
1 7 -21 9 -19 36 2 40 10 2 28 -4 40 -12 12 -9 32 -16 45 -16 12 0 25 -5 28
-10 5 -8 12 -7 22 1 22 19 132 18 143 -1 5 -8 11 -12 15 -9 3 4 -1 14 -10 22
-8 9 -15 22 -15 29 0 11 -2 11 -9 0 -6 -11 -10 -10 -15 4 -3 9 -4 19 -1 22 3
3 5 1 5 -4 0 -5 15 -10 33 -9 21 0 31 4 29 13 -1 8 2 11 8 7 6 -3 7 -11 4 -17
-4 -7 0 -7 12 0 21 11 64 -10 45 -22 -5 -3 -11 -1 -13 6 -3 7 -10 8 -17 3 -10
-5 -5 -12 18 -21 18 -8 38 -13 44 -11 7 1 11 -4 9 -11 -1 -9 2 -11 10 -6 12 8
33 13 70 16 13 2 14 6 6 15 -7 9 -7 13 1 13 7 0 9 5 6 10 -4 6 -3 10 2 9 4 -1
11 0 16 1 4 1 13 3 20 4 6 1 11 10 10 20 -1 13 2 15 10 7 7 -7 7 -14 -1 -23
-10 -13 -12 -18 -12 -39 0 -6 -7 -9 -15 -5 -8 3 -15 2 -15 -3 0 -5 9 -11 20
-14 14 -3 20 0 20 10 0 13 3 13 16 2 20 -17 44 -20 44 -7 0 6 -7 8 -15 4 -20
-7 -19 8 2 25 9 8 14 9 10 3 -4 -7 0 -18 9 -25 13 -11 18 -10 33 9 l16 22 13
-21 c8 -12 19 -18 28 -15 8 3 14 1 14 -5 0 -6 5 -7 12 -3 9 6 9 9 1 11 -7 3
-9 11 -6 19 3 8 0 14 -6 14 -6 0 -10 -5 -8 -11 1 -6 -4 -14 -12 -17 -9 -3 -11
0 -6 8 5 8 4 11 -1 7 -16 -9 -34 27 -22 44 8 11 9 10 4 -3 -5 -17 8 -23 41
-19 6 1 14 -3 18 -9 3 -5 11 -10 16 -10 6 0 8 4 5 9 -3 5 12 8 34 8 29 -1 41
-6 46 -19 3 -10 10 -18 15 -18 13 0 11 14 -3 28 -9 9 -8 12 5 12 18 0 19 20 2
32 -6 5 -6 8 2 8 7 0 17 -8 23 -17 10 -16 10 -16 5 3 -3 13 1 26 10 34 11 9
12 16 5 25 -8 9 -6 14 5 19 8 3 15 12 15 19 0 8 8 21 18 28 14 11 15 11 5 -1
-19 -21 -16 -30 13 -30 14 0 23 -4 19 -10 -3 -5 -1 -10 4 -10 6 0 11 -5 11
-11 0 -5 -3 -8 -7 -6 -5 3 -13 -1 -20 -8 -10 -10 -9 -14 1 -18 19 -7 23 -2 56
71 30 64 55 86 71 61 10 -15 11 -9 11 41 1 29 29 55 40 37 5 -8 13 -5 27 7 11
10 18 23 15 28 -4 6 -10 5 -15 -3 -6 -10 -9 -10 -9 -2 0 16 17 26 25 14 3 -6
13 -7 23 -4 9 4 2 -6 -17 -23 -30 -27 -32 -31 -16 -44 15 -12 16 -12 13 6 -1
10 2 18 7 17 51 -8 60 -7 58 5 -2 6 4 12 13 12 8 0 32 11 52 25 20 14 43 25
50 25 7 0 26 7 41 15 16 8 64 18 107 22 89 9 105 9 154 -1z m-800 -1059 c14
-2 38 -9 54 -15 17 -7 33 -9 40 -4 31 25 53 19 104 -28 48 -44 69 -90 42 -90
-5 0 -9 6 -7 13 1 8 -22 13 -83 17 -51 3 -80 8 -72 13 16 11 3 29 -44 58 l-34
20 -34 -26 c-34 -26 -52 -30 -113 -27 l-33 2 18 32 c21 37 51 49 102 42 19 -2
46 -6 60 -7z m715 -32 c144 -7 165 -11 165 -29 0 -17 50 -36 94 -36 112 -1 -9
-52 -168 -71 -87 -11 -148 -8 -286 15 -44 8 -100 28 -100 36 0 6 6 10 13 10 7
0 30 21 51 46 36 43 41 46 75 40 20 -3 90 -8 156 -11z"/>
</g>
</svg>
